Coordinates
version=1
nRows=6
nColumns=34
inDegrees=yes

Units are S.I. units (second, meters, Newtons, ...)
If the header above contains a line with 'inDegrees', this indicates whether rotational values are in degrees (yes) or radians (no).

endheader
time	pelvis_tilt	pelvis_list	pelvis_rotation	pelvis_tx	pelvis_ty	pelvis_tz	hip_flexion_r	hip_adduction_r	hip_rotation_r	knee_angle_r	ankle_angle_r	subtalar_angle_r	mtp_angle_r	hip_flexion_l	hip_adduction_l	hip_rotation_l	knee_angle_l	ankle_angle_l	subtalar_angle_l	mtp_angle_l	lumbar_extension	lumbar_bending	lumbar_rotation	arm_flex_r	arm_add_r	arm_rot_r	elbow_flex_r	pro_sup_r	arm_flex_l	arm_add_l	arm_rot_l	elbow_flex_l	pro_sup_l
      4.93333330	    -13.15540976	      0.11330994	      5.29326302	      0.29574863	      0.95728493	     -0.05958826	     16.85539851	     -2.40484624	     -4.43463627	      8.76792519	      4.95639861	     -1.92741738	      0.00000000	     17.99567035	     -0.73601542	      4.04293042	     11.10486157	      4.01866119	     -0.47669776	      0.00000000	     -0.76970837	     -0.70686613	      0.72104496	     51.02531234	      4.85588010	     59.06612486	    123.62210444	     82.41574340	     65.59277997	      8.50548418	     69.44842538	    124.51454071	     66.68429324
      4.95000000	    -12.61772600	      0.09518403	      5.30395708	      0.29754143	      0.95715684	     -0.05982288	     15.59487992	     -2.25691750	     -4.26395820	      7.71317359	      4.74452854	     -1.86708560	      0.00000000	     16.98743432	     -0.81113123	      4.14189822	     10.53775517	      3.89659347	     -0.53710267	      0.00000000	     -0.42208630	     -0.73661358	      0.85101426	     49.70799287	      5.05467158	     58.46105843	    124.25005428	     82.62645070	     64.30952206	      8.44755144	     68.93774421	    124.48011106	     66.53069709
      4.96666670	    -12.16719790	     -0.00726561	      5.16316492	      0.29871868	      0.95601402	     -0.05890865	     14.58098461	     -1.96977155	     -3.92566813	      6.90570281	      4.79268971	     -1.81843461	      0.00000000	     16.14825475	     -1.01809910	      4.31402802	     10.15146548	      3.98936208	     -0.58919276	      0.00000000	     -0.05681143	     -0.71975563	      1.00232307	     48.64887766	      4.88450420	     57.78829883	    124.64026952	     82.71572282	     63.24551390	      8.29846669	     68.51106016	    124.54766915	     66.45605138
      4.98333330	    -11.61799660	     -0.02659350	      5.13970778	      0.29885033	      0.95597945	     -0.05914556	     13.59321223	     -1.85143772	     -3.79302209	      6.31252964	      4.64401687	     -1.94205086	      0.00000000	     15.23536043	     -1.10128986	      4.38097562	      9.68815615	      4.04176251	     -0.74160234	      0.00000000	      0.15426928	     -0.71269922	      1.17989543	     47.69512242	      4.94199706	     56.66544523	    125.26161811	     82.89666331	     62.27173296	      8.78304805	     67.75218900	    124.78432362	     66.36775033
      5.00000000	    -11.34769393	     -0.05079495	      5.07521586	      0.30199451	      0.95802360	     -0.05939975	     12.86280029	     -1.73822831	     -3.51861643	      5.76960900	      4.70583255	     -1.91031952	      0.00000000	     14.72283860	     -1.16173202	      4.43547460	      9.46112237	      4.18883071	     -0.86610774	      0.00000000	      0.52928582	     -0.75811843	      1.04530411	     46.72497349	      5.50711406	     57.15516315	    125.72522159	     83.00410954	     61.55329289	      9.17502309	     67.90720838	    124.80236330	     66.35626010
      5.01666670	    -11.11230449	     -0.07600532	      5.05421011	      0.30196744	      0.96014016	     -0.05921356	     12.16203066	     -1.62189912	     -3.38534139	      5.03296664	      4.74960072	     -1.88707801	      0.00000000	     14.24241634	     -1.23322871	      4.45596679	      9.14486087	      4.23161403	     -0.96022750	      0.00000000	      1.00320413	     -0.82303876	      1.01561170	     45.92511003	      5.91314055	     57.62325192	    126.05924742	     83.07520189	     60.92909036	      9.57468667	     68.04292304	    124.96021325	     66.35122644
